<?xml version="1.0" encoding="UTF-8"?>
<svg xmlns="http://www.w3.org/2000/svg" xmlns:xlink="http://www.w3.org/1999/xlink" width="30pt" height="30pt" viewBox="0 0 30 30" version="1.1">
<g id="surface1366">
<path style=" stroke:none;fill-rule:nonzero;fill:rgb(100%,100%,100%);fill-opacity:1;" d="M 15 3 C 7.820312 3 2 7.925781 2 14 C 2 17.367188 3.792969 20.378906 6.613281 22.398438 C 6.683594 23.933594 6.445312 26.058594 4.320312 27.035156 C 4.136719 27.109375 4 27.285156 4 27.5 C 4 27.777344 4.222656 28 4.5 28 C 6.953125 28 9.035156 26.675781 10.46875 25.277344 C 10.921875 24.835938 11.550781 24.617188 12.171875 24.734375 C 13.082031 24.910156 14.027344 25 15 25 C 22.179688 25 28 20.074219 28 14 C 28 7.925781 22.179688 3 15 3 Z M 15 3 "/>
</g>
</svg>
