<?xml version="1.0" encoding="UTF-8"?>
<svg xmlns="http://www.w3.org/2000/svg" xmlns:xlink="http://www.w3.org/1999/xlink" width="30pt" height="30pt" viewBox="0 0 30 30" version="1.1">
<g id="surface2258">
<path style=" stroke:none;fill-rule:nonzero;fill:rgb(100%,100%,100%);fill-opacity:1;" d="M 27 14 L 26.828125 14 C 26.351562 14 25.925781 13.664062 25.847656 13.191406 C 25.8125 12.960938 25.765625 12.734375 25.714844 12.511719 C 25.609375 12.046875 25.875 11.578125 26.3125 11.394531 L 26.46875 11.332031 C 26.980469 11.121094 27.222656 10.535156 27.011719 10.023438 C 26.800781 9.515625 26.214844 9.269531 25.703125 9.484375 L 25.542969 9.550781 C 25.101562 9.730469 24.582031 9.585938 24.328125 9.179688 C 24.207031 8.984375 24.078125 8.789062 23.945312 8.601562 C 23.667969 8.214844 23.730469 7.679688 24.070312 7.34375 L 24.191406 7.21875 C 24.582031 6.828125 24.582031 6.195312 24.191406 5.804688 C 23.800781 5.414062 23.167969 5.414062 22.777344 5.804688 L 22.65625 5.929688 C 22.320312 6.265625 21.78125 6.332031 21.394531 6.054688 C 21.207031 5.921875 21.015625 5.792969 20.820312 5.671875 C 20.414062 5.417969 20.265625 4.898438 20.449219 4.457031 L 20.515625 4.296875 C 20.726562 3.785156 20.484375 3.199219 19.972656 2.988281 C 19.464844 2.777344 18.878906 3.019531 18.667969 3.53125 L 18.601562 3.6875 C 18.421875 4.125 17.949219 4.390625 17.488281 4.28125 C 17.261719 4.230469 17.035156 4.1875 16.808594 4.152344 C 16.335938 4.074219 16 3.648438 16 3.171875 L 16 3 C 16 2.449219 15.550781 2 15 2 C 14.449219 2 14 2.449219 14 3 L 14 3.171875 C 14 3.648438 13.664062 4.074219 13.191406 4.152344 C 12.960938 4.1875 12.734375 4.234375 12.511719 4.285156 C 12.046875 4.390625 11.578125 4.125 11.394531 3.6875 L 11.332031 3.53125 C 11.121094 3.019531 10.535156 2.777344 10.023438 2.988281 C 9.515625 3.199219 9.269531 3.785156 9.484375 4.296875 L 9.550781 4.457031 C 9.734375 4.898438 9.585938 5.417969 9.179688 5.671875 C 8.984375 5.792969 8.792969 5.921875 8.605469 6.054688 C 8.21875 6.328125 7.679688 6.265625 7.34375 5.929688 L 7.222656 5.808594 C 6.832031 5.417969 6.199219 5.417969 5.808594 5.808594 C 5.417969 6.199219 5.417969 6.832031 5.808594 7.222656 L 5.929688 7.34375 C 6.265625 7.679688 6.328125 8.214844 6.054688 8.605469 C 5.921875 8.792969 5.792969 8.984375 5.671875 9.179688 C 5.417969 9.585938 4.898438 9.734375 4.457031 9.550781 L 4.296875 9.484375 C 3.785156 9.273438 3.199219 9.515625 2.988281 10.023438 C 2.777344 10.535156 3.019531 11.121094 3.53125 11.332031 L 3.6875 11.398438 C 4.125 11.578125 4.390625 12.046875 4.28125 12.511719 C 4.230469 12.734375 4.1875 12.964844 4.152344 13.191406 C 4.074219 13.664062 3.648438 14 3.171875 14 L 3 14 C 2.449219 14 2 14.449219 2 15 C 2 15.550781 2.449219 16 3 16 L 3.171875 16 C 3.648438 16 4.074219 16.335938 4.152344 16.808594 C 4.1875 17.039062 4.234375 17.265625 4.285156 17.488281 C 4.390625 17.953125 4.125 18.421875 3.6875 18.605469 L 3.53125 18.667969 C 3.019531 18.878906 2.777344 19.464844 2.988281 19.976562 C 3.199219 20.484375 3.785156 20.730469 4.296875 20.515625 L 4.457031 20.449219 C 4.898438 20.269531 5.417969 20.414062 5.671875 20.820312 C 5.792969 21.015625 5.921875 21.210938 6.054688 21.398438 C 6.332031 21.785156 6.269531 22.320312 5.929688 22.65625 L 5.808594 22.78125 C 5.417969 23.171875 5.417969 23.804688 5.808594 24.195312 C 6.199219 24.585938 6.832031 24.585938 7.222656 24.195312 L 7.34375 24.070312 C 7.683594 23.734375 8.21875 23.671875 8.605469 23.949219 C 8.792969 24.082031 8.984375 24.210938 9.183594 24.332031 C 9.585938 24.585938 9.734375 25.105469 9.550781 25.546875 L 9.484375 25.707031 C 9.273438 26.214844 9.515625 26.800781 10.027344 27.011719 C 10.535156 27.222656 11.121094 26.980469 11.335938 26.472656 L 11.398438 26.316406 C 11.582031 25.878906 12.050781 25.613281 12.515625 25.71875 C 12.738281 25.769531 12.964844 25.8125 13.195312 25.851562 C 13.664062 25.925781 14 26.351562 14 26.828125 L 14 27 C 14 27.550781 14.449219 28 15 28 C 15.550781 28 16 27.550781 16 27 L 16 26.828125 C 16 26.351562 16.335938 25.925781 16.808594 25.847656 C 17.039062 25.8125 17.265625 25.765625 17.488281 25.714844 C 17.953125 25.609375 18.421875 25.875 18.605469 26.3125 L 18.667969 26.46875 C 18.878906 26.980469 19.464844 27.222656 19.976562 27.011719 C 20.484375 26.800781 20.730469 26.214844 20.515625 25.703125 L 20.449219 25.542969 C 20.269531 25.101562 20.414062 24.582031 20.820312 24.328125 C 21.015625 24.207031 21.210938 24.078125 21.398438 23.945312 C 21.785156 23.667969 22.320312 23.730469 22.65625 24.070312 L 22.78125 24.191406 C 23.171875 24.582031 23.804688 24.582031 24.195312 24.191406 C 24.585938 23.800781 24.585938 23.167969 24.195312 22.777344 L 24.070312 22.65625 C 23.734375 22.316406 23.671875 21.78125 23.949219 21.394531 C 24.082031 21.207031 24.210938 21.015625 24.332031 20.816406 C 24.585938 20.414062 25.105469 20.265625 25.546875 20.449219 L 25.707031 20.515625 C 26.214844 20.726562 26.800781 20.484375 27.011719 19.972656 C 27.222656 19.464844 26.980469 18.878906 26.472656 18.664062 L 26.316406 18.601562 C 25.878906 18.417969 25.613281 17.949219 25.71875 17.484375 C 25.769531 17.261719 25.8125 17.035156 25.851562 16.804688 C 25.925781 16.335938 26.351562 16 26.828125 16 L 27 16 C 27.550781 16 28 15.550781 28 15 C 28 14.449219 27.550781 14 27 14 Z M 15 23 C 10.582031 23 7 19.417969 7 15 C 7 10.582031 10.582031 7 15 7 C 19.417969 7 23 10.582031 23 15 C 23 19.417969 19.417969 23 15 23 Z M 15 23 "/>
<path style=" stroke:none;fill-rule:nonzero;fill:rgb(100%,100%,100%);fill-opacity:1;" d="M 15 14 L 24 14 L 24 16 L 15 16 Z M 15 14 "/>
<path style=" stroke:none;fill-rule:nonzero;fill:rgb(100%,100%,100%);fill-opacity:1;" d="M 11.367188 6.707031 L 15.867188 14.5 L 14.132812 15.5 L 9.632812 7.707031 Z M 11.367188 6.707031 "/>
<path style=" stroke:none;fill-rule:nonzero;fill:rgb(100%,100%,100%);fill-opacity:1;" d="M 16.113281 15.066406 L 11.363281 23.292969 L 9.632812 22.292969 L 14.382812 14.066406 Z M 16.113281 15.066406 "/>
<path style=" stroke:none;fill-rule:nonzero;fill:rgb(100%,100%,100%);fill-opacity:1;" d="M 15 13 C 13.894531 13 13 13.894531 13 15 C 13 16.105469 13.894531 17 15 17 C 16.105469 17 17 16.105469 17 15 C 17 13.894531 16.105469 13 15 13 Z M 15 13 "/>
</g>
</svg>
