<?xml version="1.0" encoding="UTF-8"?>
<svg xmlns="http://www.w3.org/2000/svg" xmlns:xlink="http://www.w3.org/1999/xlink" width="30pt" height="30pt" viewBox="0 0 30 30" version="1.1">
<g id="surface2272">
<path style=" stroke:none;fill-rule:nonzero;fill:rgb(100%,100%,100%);fill-opacity:1;" d="M 3.15625 26.132812 C 6.066406 23.558594 5 21 5 21 L 12 23 C 12 23 8.335938 26.722656 3.582031 26.988281 Z M 3.15625 26.132812 "/>
<path style=" stroke:none;fill-rule:nonzero;fill:rgb(100%,100%,100%);fill-opacity:1;" d="M 3.5 26 C 3.222656 26 3 26.222656 3 26.5 C 3 26.777344 3.222656 27 3.5 27 C 3.777344 27 4 26.777344 4 26.5 C 4 26.222656 3.777344 26 3.5 26 Z M 15 3 C 7.820312 3 2 7.925781 2 14 C 2 20.074219 7.820312 25 15 25 C 22.179688 25 28 20.074219 28 14 C 28 7.925781 22.179688 3 15 3 Z M 16 20 L 14 20 L 14 13 L 16 13 Z M 15 10.5 C 14.171875 10.5 13.5 9.828125 13.5 9 C 13.5 8.171875 14.171875 7.5 15 7.5 C 15.828125 7.5 16.5 8.171875 16.5 9 C 16.5 9.828125 15.828125 10.5 15 10.5 Z M 15 10.5 "/>
</g>
</svg>
